<svg xmlns="http://www.w3.org/2000/svg" viewBox="0 0 24 24" xmlns:v="https://vecta.io/nano"><path fill="#f5f5f7" d="M22.265 2.428a2.048 2.048 0 0 0-2.078-.324L2.266 9.339a2.043 2.043 0 0 0 .104 3.818l3.625 1.261L8.016 21.1a.998.998 0 0 0 .118.252c.008.012.019.021.027.033a.988.988 0 0 0 .211.216l.07.05a.986.986 0 0 0 .311.136l.012.001.007.003a1.022 1.022 0 0 0 .202.021.993.993 0 0 0 .32-.056c.023-.008.042-.021.064-.03a.993.993 0 0 0 .204-.115 250.76 250.76 0 0 1 .152-.128l2.702-2.983 4.03 3.122a2.023 2.023 0 0 0 1.241.427 2.054 2.054 0 0 0 2.008-1.633l3.263-16.017a2.03 2.03 0 0 0-.693-1.971zM9.37 14.736a.994.994 0 0 0-.272.506l-.31 1.504-.784-2.593 4.065-2.117zm8.302 5.304l-4.763-3.689a1.001 1.001 0 0 0-1.354.119l-.865.955.306-1.486 7.083-7.083a1 1 0 0 0-1.169-1.594L6.745 12.554l-3.724-1.363 17.978-7.192z"/></svg>